<svg xmlns="http://www.w3.org/2000/svg" viewBox="0 0 297 75.5"><style type="text/css">
	.st0{fill:#FBBA00;}
	.st1{fill:#813318;}
	.st2{fill:#74AF27;}
	.st3{fill:#009CDE;}
</style><title>  VIVESCIA_Log_Q</title><path class="st0" d="M37.6 1.2c-7.9 0.7-15.4 3.9-21.3 9.2 16.8 3.1 33.9 3.7 50.9 1.9C59.5 4.3 48.6 0.2 37.6 1.2"/><path class="st0" d="M8.7 20c21.4 1.3 42.8 1.2 64.2-0.1 -0.8-1.4-1.7-2.8-2.6-4 -19.1 0.3-38.1-0.4-57.1-2.1C11.4 15.7 9.9 17.8 8.7 20"/><path class="st1" d="M77.4 39.1c-21.8 0.7-43.7 0.1-65.5-1.7 -2.6-0.2-5.3-0.5-7.8-0.8 0 1.4 0 2.9 0.1 4.3 0.3 2.9 0.8 5.7 1.7 8.4 23.2 1.8 46.5 1.8 69.6 0C76.7 46 77.3 42.6 77.4 39.1"/><path class="st2" d="M4.7 31.2c-0.1 0.8-0.3 1.7-0.4 2.6 7 0.4 14.3 0.8 22.1 1.2 16.7 0.8 33.9 1.3 51.1 1.7 0-0.7-0.1-1.4-0.1-2.2 0 0 0 0 0-0.1 -14-0.4-27.9-1-41.7-1.6 -4.2-0.2-8.3-0.4-12.3-0.6l-4.2-0.2 4.2 0.2c17.7-0.3 35.5-1.4 53-3.4 -0.5-2-1.2-4-2-6 -22.5 1.5-45.1 1.8-67.6 1C5.8 26.3 5.1 28.7 4.7 31.2L4.7 31.2 4.7 31.2z"/><path class="st3" d="M72.1 56.8c0.6-1 1.2-2.1 1.7-3.1 -21.7 0.9-44 1.1-65.9 0.4 1 2 2.1 3.8 3.4 5.6l0 0c12.1 16.3 35.1 19.7 51.3 7.6 2.3-1.7 4.4-3.7 6.2-5.8 -15.8 0.6-31.6 0-47.3-1.9l0 0C38.6 59.1 55.6 58.2 72.1 56.8z"/><path class="st1" d="M105.8 22.7l-6.1 21.2 -6.7-23.5h-7.2l10.9 31.5h6.2l10.7-31.5h-4.7C107.4 20.2 106 21.2 105.8 22.7z"/><path class="st1" d="M254.2 21.3c-0.6 0.6-1 1.5-1 2.3v28.5h3.2c1.8 0 3.3-1.5 3.3-3.3 0 0 0 0 0 0V20.3h-3.2C255.7 20.3 254.8 20.6 254.2 21.3z"/><path class="st1" d="M119 21.3c-0.6 0.6-1 1.5-1 2.3v28.5h3.2c1.8 0 3.3-1.5 3.3-3.3 0 0 0 0 0 0V20.3h-3.2C120.4 20.3 119.6 20.6 119 21.3z"/><path class="st1" d="M142.9 43.9l-6.1-21.2c-0.2-1.5-1.6-2.5-3.1-2.4H129l10.7 31.5h6.2l10.9-31.5h-7.2L142.9 43.9z"/><path class="st1" d="M234 25.2c1.7-0.1 3.4 0.4 4.9 1.4 0.6 0.6 1.1 1.3 1.6 2.1 0.5 1.2 1.8 2 3.1 1.9h3.9c-0.1-3.2-1.5-6.1-3.9-8.2 -2.3-2-5.5-3-9.6-3 -4.9 0-8.7 1.4-11.4 4.3 -2.6 2.7-3.9 6.9-3.9 12.4 0 5.4 1.3 9.4 3.8 12.2 2.5 2.9 6.1 4.3 10.9 4.3 4.1 0 7.4-1 9.9-3 2.5-2.2 4-5.3 4.1-8.6h-6.3c-0.3 1.7-1.2 3.2-2.5 4.4 -1.4 1-3.1 1.5-4.9 1.5 -2.4 0.2-4.8-0.9-6.3-2.8 -1.5-1.8-2.2-4.5-2.2-7.9 0-3.5 0.7-6.2 2.2-8.1C229 26.1 231.5 25.1 234 25.2z"/><path class="st1" d="M281.5 20.3h-5.1c-1.4-0.1-2.7 0.8-3.1 2.1l-10.4 29.4h6.9l2-6.5H284l2.1 6.5h6.9L281.5 20.3zM273.5 40l4.4-13.4 4.4 13.4H273.5L273.5 40z"/><path class="st1" d="M184.2 21.5L184.2 21.5 184.2 21.5v-1.2h-19.6c-1.8 0-3.3 1.5-3.3 3.3 0 0 0 0 0 0v28.2h22.9v-2.5c0-0.9-0.4-1.7-1-2.3 -0.6-0.6-1.5-1-2.3-1h-13.2v-8.1h9c1.8 0 3.3-1.5 3.3-3.3 0 0 0 0 0 0v-2.1h-12.3v-6.8h13.2c1.8 0 3.3-1.5 3.3-3.3 0 0 0 0 0 0v-0.7l0 0L184.2 21.5 184.2 21.5z"/><path class="st1" d="M210.5 35.2c-1.9-1.2-8.4-2.7-9.7-3 -3.5-0.8-5.3-2-5.3-3.7 0-1.1 0.5-2.2 1.4-2.8 1.2-0.8 2.6-1.1 3.9-1 1.6-0.1 3.2 0.3 4.5 1.2 0.5 0.4 1 0.9 1.3 1.6 0.5 1.2 1.7 2 3 1.9h3.7c0-2.8-1.2-5.5-3.3-7.4 -2-1.7-4.9-2.6-8.6-2.6 -4 0-7 0.8-9.1 2.5 -2.1 1.7-3.2 4.3-3.1 7.1 -0.1 1.5 0.3 2.9 0.9 4.2 0.5 1.3 1.4 2.3 2.6 2.9 1.9 1.1 4 1.8 6.2 2.2l0.9 0.2c5.5 1.2 8.2 2.8 8.2 4.7 0.1 1.2-0.5 2.3-1.5 2.9 -1.3 0.7-2.8 1.1-4.3 1 -1.8 0.1-3.5-0.3-5-1.3 -1.3-0.9-2-2.3-2.1-3.9h-6.4c0.2 3.5 1.4 6.1 3.7 7.9 2.1 1.8 5.2 2.7 9.3 2.7 4 0 7.1-0.9 9.3-2.6 2.2-1.9 3.5-4.8 3.3-7.7 0-1.5-0.3-2.9-1-4.2C212.6 36.8 211.6 35.9 210.5 35.2z"/></svg>

